<svg xmlns="http://www.w3.org/2000/svg" height="443" width="512"><rect id="backgroundrect" width="100%" height="100%" x="0" y="0" fill="none" stroke="none"/><g class="currentLayer" style=""><title>Layer 1</title><path d="m325.917969,204.082031 c-2.863281,0 -5.386719,0.9648440000000001 -7.542969,2.953125 c-2.1835940000000003,1.9570319999999999 -3.257812,4.453125 -3.257812,7.488282 c0,3.035156 1.0742180000000001,5.53125 3.257812,7.488281 c2.15625,1.9570310000000002 4.6796880000000005,2.9492190000000003 7.542969,2.9492190000000003 c2.945312,0 5.414062,-0.992188 7.425781,-3.007813 c2.011719,-2.011719 3.003906,-4.480469 3.003906,-7.429687 c0,-2.867188 -1.019531,-5.332032 -3.058594,-7.375 c-2.042968,-2.042969 -4.5078119999999995,-3.066407 -7.371093,-3.066407 zm0,0 " id="svg_1" class="" fill-opacity="1" fill="#fffff0"/><path d="m325.917969,243.027344 c-2.863281,0 -5.359375,1.019531 -7.484375,3.0625 c-2.125,2.042968 -3.203125,4.5390619999999995 -3.203125,7.488281 c0,2.78125 1.019531,5.273437 3.0625,7.488281 c2.125,2.070313 4.675781000000001,3.089844 7.625,3.089844 c2.863281,0 5.328125,-1.019531 7.367187,-3.089844 c2.042969,-2.042968 3.0625,-4.480468 3.0625,-7.347656 c0,-2.9492190000000003 -1.019531,-5.472656 -3.0625,-7.574219 c-2.039062,-2.066406 -4.503906,-3.117187 -7.367187,-3.117187 zm0,0 " id="svg_2" class="" fill-opacity="1" fill="#fffff0"/><path d="m212.472656,193.390625 h-5.753906 l0.11328100000000002,-11.0625 c0,-2.691406 -0.933593,-4.90625 -2.835937,-6.636719 c-1.8710940000000003,-1.8710940000000003 -4.050782,-2.804687 -6.488282,-2.804687 c-2.636718,0 -4.847656,0.90625 -6.691406,2.75 s-2.7773440000000003,4.082031 -2.7773440000000003,6.691406 v11.0625 h-3.0625 c-2.378906,0 -4.421874,0.792969 -6.121093,2.410156 c-1.730469,1.5898440000000003 -2.578125,3.5742190000000003 -2.578125,5.957031 c0,2.210938 0.792968,4.167969 2.4375,5.871094 c1.6445310000000002,1.730469 3.742187,2.582032 6.261718,2.582032 h3.203126 v40.925781 c0,1.390625 0.22656200000000004,2.640625 0.6796870000000002,3.746093 c0.425781,1.105469 1.105469,2.097657 2.015625,3.003907 c1.8125,1.875 3.9960940000000003,2.808593 6.632812,2.808593 c2.691407,0 4.9296880000000005,-0.933593 6.6875,-2.808593 c1.757813,-1.898438 2.6367190000000003,-4.140625 2.6367190000000003,-6.75 l-0.11328100000000002,-40.785157 h5.640625 c2.382813,0 4.394531,-0.8515619999999999 6.066406,-2.523437 s2.523438,-3.660156 2.523438,-5.957031 c0,-2.378906 -0.820313,-4.394532 -2.4648440000000003,-6.011719 c-1.617187,-1.6445310000000002 -3.628906,-2.46875 -6.011719,-2.46875 zm0,0 " id="svg_3" class="" fill-opacity="1" fill="#fffff0"/><path d="m161.902344,193.390625 h-5.78125 l0.140625,-11.0625 c0,-2.691406 -0.9609380000000001,-4.90625 -2.832031,-6.636719 c-1.8710940000000003,-1.8710940000000003 -4.054688,-2.804687 -6.4921880000000005,-2.804687 c-2.6367190000000003,0 -4.875,0.90625 -6.691406,2.75 c-1.8398440000000003,1.84375 -2.7773440000000003,4.082031 -2.7773440000000003,6.691406 v11.0625 h-3.0625 c-2.378906,0 -4.421875,0.792969 -6.148438,2.410156 c-1.703124,1.5898440000000003 -2.582031,3.5742190000000003 -2.582031,5.957031 c0,2.210938 0.824219,4.167969 2.46875,5.871094 c1.6445310000000002,1.730469 3.710938,2.582032 6.261719,2.582032 h3.175781 v40.925781 c0,1.390625 0.22656300000000004,2.640625 0.6796880000000002,3.746093 c0.453125,1.105469 1.136719,2.097657 2.042969,3.003907 c1.785156,1.875 3.996093,2.808593 6.632812,2.808593 c2.691406,0 4.9296880000000005,-0.933593 6.691406,-2.808593 c1.7539060000000002,-1.898438 2.632813,-4.140625 2.632813,-6.75 l-0.140625,-40.785157 h5.667968 c2.3554690000000003,0 4.394532,-0.8515619999999999 6.066407,-2.523437 s2.523437,-3.660156 2.523437,-5.957031 c0,-2.378906 -0.8203119999999999,-4.394532 -2.4648440000000003,-6.011719 c-1.6445310000000002,-1.6445310000000002 -3.628906,-2.46875 -6.011718,-2.46875 zm0,0 " id="svg_4" class="" fill-opacity="1" fill="#fffff0"/><path d="m93.902344,192.171875 c-5.332032,0 -10.148438,1.246094 -14.488282,3.800781 l-2.71875,1.84375 v-24.703125 c0,-2.695312 -0.9375,-4.910156 -2.808593,-6.609375 c-1.8125,-1.898437 -4.023438,-2.835937 -6.6328130000000005,-2.835937 c-2.632812,0 -4.875,0.9375 -6.746094,2.835937 c-1.898437,1.8710940000000003 -2.832031,4.082032 -2.832031,6.609375 v78.253907 c0,2.550781 0.933594,4.765624 2.832031,6.636718 c1.8710940000000003,1.8710940000000003 4.113282,2.835938 6.746094,2.835938 c2.609375,0 4.847656,-0.9375 6.691406,-2.78125 s2.75,-4.054688 2.75,-6.691406 v-32.304688 c0,-3.035156 1.105469,-5.6171880000000005 3.316407,-7.746094 c2.210937,-2.125 4.875,-3.175781 7.9921869999999995,-3.175781 c2.9492190000000003,0 5.472656,1.078125 7.597656,3.261719 c2.128907,2.15625 3.203126,4.765625 3.203126,7.800781 v32.164063 c0,2.636718 0.9375,4.878906 2.808593,6.75 c1.898438,1.898437 4.136719,2.835937 6.773438,2.835937 c2.695312,0 4.90625,-0.9375 6.632812,-2.835937 c1.8710940000000003,-1.8710940000000003 2.8085940000000003,-4.113282 2.8085940000000003,-6.75 v-35.257813 c0,-7.03125 -1.929687,-12.5625 -5.7578130000000005,-16.5625 c-4.847656,-4.9375 -10.882812,-7.375 -18.167968,-7.375 zm0,0 " id="svg_5" class="" fill-opacity="1" fill="#fffff0"/><path d="m293.882812,208.91180073056793 c-1.359374,-2.242187 -3.03125,-4.367187 -5.015624,-6.351562 c-6.207032,-6.214844 -13.632813,-9.304688 -22.308594,-9.304688 c-6.347656,0 -12.132813,1.585938 -17.375,4.792969 c-2.863282,-7.121094 -17.546875,-9.046875 -17.546875,4.734375 v76.015625 c0,2.8085940000000003 0.933593,5.046875 2.804687,6.777344 c1.898438,1.875 4.140625,2.808593 6.777344,2.808593 c2.691406,0 4.847656,-0.9921869999999997 6.605469,-2.808593 c1.8398430000000001,-1.8710940000000005 2.832031,-4.027344 2.832031,-6.636719 v-26.375 c4.847656,2.6054690000000003 10.148438,3.9414059999999997 15.902344,3.9414059999999997 c8.929687,0 16.414062,-3.035156 22.507812,-9.132812 c6.066406,-6.070313 9.101563,-13.558594 9.101563,-22.492188 c0,-3.832031 -0.5976570000000002,-7.40625 -1.8164069999999999,-10.75 c-0.566406,-1.785156 -1.4179680000000001,-3.546875 -2.46875,-5.21875 zm-27.636718000000002,29.46875 c-7.6796880000000005,0 -13.890625,-6.210937 -13.890625,-13.867187 c0,-7.660157 6.210937,-13.898438 13.890625,-13.898438 c7.652344,0 13.863281,6.238281 13.863281,13.898438 c0,7.65625 -6.207031,13.867187 -13.863281,13.867187 zm0,0 " id="svg_6" class="" fill-opacity="1" fill="#fffff0"/><path d="m468.441406,118.105469 h-16.425781 c-18.03125,-34.117188 -44.65625,-62.980469 -77.324219,-83.734375 c-35.394531,-22.484375 -76.363281,-34.371094 -118.476562,-34.371094 c-16.976563,0 -33.835938,1.917969 -50.113282,5.703125 c-5.378906,1.253906 -8.722656,6.625 -7.472656,12 c1.25,5.378906 6.621094,8.71875 12,7.472656 c14.792969,-3.441406 30.128906,-5.1875 45.585938,-5.1875 c44.519531,0 86.382812,14.324219 120.414062,39.742188 h-45.78125 c-22.15625,0 -40.183594,18.035156 -40.183594,40.203125 c0,6.417968 1.5820319999999999,12.628906 4.414063,18.167968 h-211.714844 c15.191407,-25.375 35.871094,-47.265624 60.539063,-63.882812 c4.578125,-3.082031 5.7890619999999995,-9.292969 2.707031,-13.871094 s-9.292969,-5.7890619999999995 -13.875,-2.707031 c-30.378906,20.460937 -55.269531,48.195313 -72.320313,80.460937 h-16.886718000000002 c-24,0.003907000000000001 -43.527344,19.539063 -43.527344,43.550782 v117.367187 c0,24.027344 19.527344,43.578125 43.527344,43.578125 h15.691406 c10.875,21.179688 25.039062,40.390625 41.917969,56.964844 c0.011719000000000004,0.007812000000000002 0.019531000000000003,0.019531000000000003 0.03125000000000001,0.027344000000000007 c10.761719,10.566406 22.625,20.0625 35.4375,28.3125 c35.664062,22.960937 77.023437,35.097656 119.605469,35.097656 c42.582031,0 83.941406,-12.136719 119.605468,-35.097656 c32.925782,-21.199219 59.570313,-50.601563 77.386719,-85.304688 h15.238281 c24.015625,0 43.558594,-19.550781 43.558594,-43.578125 v-117.367187 c0,-24.011719 -19.539062,-43.546875 -43.558594,-43.546875 zm-157.785156,-18.171875 c0,-11.144532 9.058594,-20.210938 20.191406,-20.210938 h68.671875 c11.21875,11.40625 21.167969,24.257813 29.582031,38.382813 h-107.074218 c-6.863282,-3.378907 -11.371094,-10.476563 -11.371094,-18.171875 zm-125.421875,222.664062 c9.160156,2.0625 15.742187,10.21875 15.742187,19.699219 c0,11.144531 -9.058593,20.210937 -20.195312,20.210937 h-68.257812 c-11.699219,-11.871093 -21.988281999999998,-25.25 -30.519531999999998,-39.910156 zm306.773437,-43.578125 c0,13.007813 -10.570312,23.585938 -23.566406,23.585938 h-111.824218 c-5.519532,0 -9.996094,4.476562 -9.996094,9.996093 c0,5.519532 4.476562,9.996094 9.996094,9.996094 h73.804687 c-35.78125,61.480469 -102.496094,100.410156 -174.207031,100.410156 c-44.1875,0 -86.472656,-14.78125 -120.800782,-40.507812 h45.371094 c22.15625,0 40.183594,-18.035156 40.183594,-40.203125 c0,-7.105469 -1.867188,-13.84375 -5.160156,-19.699219 h60.929687 c5.519531,0 9.992188,-4.476562 9.992188,-9.996094 c0,-5.519531 -4.472657,-9.996093 -9.992188,-9.996093 h-90.550781 c-0.015625000000000003,0 -0.03125000000000001,0 -0.05078100000000001,0 h-142.609375 c-12.976563,0 -23.535156,-10.578125 -23.535156,-23.585938 v-117.367187 c0,-12.988282 10.558593,-23.558594 23.535156,-23.558594 h22.949218 h0.03515700000000001 h0.027343000000000006 h253.332032 c0.019531000000000003,0 0.039062000000000006,0.003906000000000001 0.06250000000000001,0.003906000000000001 c0.011718000000000003,0 0.027344000000000007,-0.003906000000000001 0.039062000000000006,-0.003906000000000001 h125.914063 h0.027343000000000006 h0.03515700000000001 h22.492187 c12.996094,0 23.566406,10.566406 23.566406,23.558594 zm0,0 " id="svg_7" class="" fill-opacity="1" fill="#fffff0"/><path d="m427.511719,169.820312 l-33.109375,82.308594 c-0.39843800000000007,0.9648440000000001 -0.6523440000000001,1.9882819999999999 -0.6523440000000001,3.035156 c0,12.566407 15.589844,14.496094 19.359375,4.7109380000000005 l33.25,-82.511719 c0.425781,-0.933593 0.6523440000000001,-2.011719 0.6523440000000001,-3.144531 c0,-13.105469 -15.902344,-14.183594 -19.5,-4.3984380000000005 zm0,0 " id="svg_8" class="" fill-opacity="1" fill="#fffff0"/><path d="m403.925781,171.777344 c0,-13.132813 -15.929687,-14.179688 -19.503906,-4.425782 l-33.105469,82.339844 c-0.425781,0.9648440000000001 -0.6523440000000001,1.984375 -0.6523440000000001,3.035156 c0,12.535157 15.589844,14.464844 19.359376,4.6796880000000005 l33.25,-82.507812 c0.425781,-0.9375 0.6523430000000001,-2.011719 0.6523430000000001,-3.121094 zm0,0 " id="svg_9" class="" fill-opacity="1" fill="#fffff0"/><path d="m170.132812,38.3125 c1.5,0 3.027344,-0.3398440000000001 4.460938,-1.054688 l0.171875,-0.08593700000000001 c4.9375,-2.46875 6.9375,-8.472656 4.46875,-13.410156 s-8.472656,-6.941407 -13.410156,-4.46875 l-0.171875,0.08203100000000002 c-4.9375,2.472656 -6.9375,8.472656 -4.46875,13.410156 c1.7539060000000002,3.5039059999999997 5.28125,5.527344 8.949218,5.527344 zm0,0 " id="svg_10" class="" fill-opacity="1" fill="#fffff0"/><path d="m316.875,302.605469 h-0.19921900000000006 c-5.519531,0 -9.996093,4.476562 -9.996093,9.996093 c0,5.519532 4.476562,9.996094 9.996093,9.996094 h0.19921900000000006 c5.519531,0 9.996094,-4.476562 9.996094,-9.996094 c0,-5.519531 -4.476563,-9.996093 -9.996094,-9.996093 zm0,0 " id="svg_11" class="" fill-opacity="1" fill="#fffff0"/></g></svg>