<svg xmlns="http://www.w3.org/2000/svg" height="512" width="408"><rect id="backgroundrect" width="100%" height="100%" x="0" y="0" fill="none" stroke="none" class="" style=""/><g class="currentLayer" style=""><title>Layer 1</title><path d="m34.5,25 c-5.515625,0 -10,4.484375 -10,10 s4.484375,10 10,10 s10,-4.484375 10,-10 s-4.484375,-10 -10,-10 zm0,0 " id="svg_1" class="" fill-opacity="1" fill="#fffff0"/><path d="m69.5,25 c-5.515625,0 -10,4.484375 -10,10 s4.484375,10 10,10 s10,-4.484375 10,-10 s-4.484375,-10 -10,-10 zm0,0 " id="svg_2" class="" fill-opacity="1" fill="#fffff0"/><path d="m104.5,25 c-5.515625,0 -10,4.484375 -10,10 s4.484375,10 10,10 s10,-4.484375 10,-10 s-4.484375,-10 -10,-10 zm0,0 " id="svg_3" class="" fill-opacity="1" fill="#fffff0"/><path d="m380.5,0 h-353 c-15.164062,0 -27.5,12.335938 -27.5,27.5 v412.007812 c0,4.144532 3.359375,7.5 7.5,7.5 s7.5,-3.355468 7.5,-7.5 v-200.507812 h126.289062 c3.097657,8.730469 11.433594,15 21.210938,15 h83 c9.777344,0 18.113281,-6.269531 21.210938,-15 h126.289062 v245.5 c0,6.894531 -5.605469,12.5 -12.5,12.5 h-353 c-6.894531,0 -12.5,-5.605469 -12.5,-12.5 v-9.992188 c0,-4.140624 -3.359375,-7.5 -7.5,-7.5 s-7.5,3.359376 -7.5,7.5 v9.992188 c0,15.164062 12.335938,27.5 27.5,27.5 h353 c15.164062,0 27.5,-12.335938 27.5,-27.5 v-457 c0,-15.164062 -12.335938,-27.5 -27.5,-27.5 zm-135,239 h-83 c-4.136719,0 -7.5,-3.363281 -7.5,-7.5 s3.363281,-7.5 7.5,-7.5 h83 c4.136719,0 7.5,3.363281 7.5,7.5 s-3.363281,7.5 -7.5,7.5 zm147.5,-15 h-126.289062 c-3.097657,-8.730469 -11.433594,-15 -21.210938,-15 h-83 c-9.777344,0 -18.113281,6.269531 -21.210938,15 h-126.289062 v-154 h350.5 c4.140625,0 7.5,-3.3554690000000003 7.5,-7.5 s-3.359375,-7.5 -7.5,-7.5 h-350.5 v-27.5 c0,-6.894531 5.605469,-12.5 12.5,-12.5 h353 c6.894531,0 12.5,5.605469 12.5,12.5 zm0,0 " id="svg_4" class="" fill-opacity="1" fill="#fffff0"/><path d="m143.5,117 c0,-4.144531 -3.359375,-7.5 -7.5,-7.5 h-56 c-4.140625,0 -7.5,3.3554690000000003 -7.5,7.5 s3.359375,7.5 7.5,7.5 h56 c4.140625,0 7.5,-3.3554690000000003 7.5,-7.5 zm0,0 " id="svg_5" class="" fill-opacity="1" fill="#fffff0"/><path d="m166,124.5 h76 c4.140625,0 7.5,-3.3554690000000003 7.5,-7.5 s-3.359375,-7.5 -7.5,-7.5 h-76 c-4.140625,0 -7.5,3.3554690000000003 -7.5,7.5 s3.359375,7.5 7.5,7.5 zm0,0 " id="svg_6" class="" fill-opacity="1" fill="#fffff0"/><path d="m328,109.5 h-56 c-4.140625,0 -7.5,3.3554690000000003 -7.5,7.5 s3.359375,7.5 7.5,7.5 h56 c4.140625,0 7.5,-3.3554690000000003 7.5,-7.5 s-3.359375,-7.5 -7.5,-7.5 zm0,0 " id="svg_7" class="" fill-opacity="1" fill="#fffff0"/><path d="m196.5,147 c0,-4.144531 -3.359375,-7.5 -7.5,-7.5 h-71 c-4.140625,0 -7.5,3.3554690000000003 -7.5,7.5 s3.359375,7.5 7.5,7.5 h71 c4.140625,0 7.5,-3.3554690000000003 7.5,-7.5 zm0,0 " id="svg_8" class="" fill-opacity="1" fill="#fffff0"/><path d="m290,139.5 h-71 c-4.140625,0 -7.5,3.3554690000000003 -7.5,7.5 s3.359375,7.5 7.5,7.5 h71 c4.140625,0 7.5,-3.3554690000000003 7.5,-7.5 s-3.359375,-7.5 -7.5,-7.5 zm0,0 " id="svg_9" class="" fill-opacity="1" fill="#fffff0"/><path d="m257,169.5 h-101 c-4.140625,0 -7.5,3.3554690000000003 -7.5,7.5 s3.359375,7.5 7.5,7.5 h101 c4.140625,0 7.5,-3.3554690000000003 7.5,-7.5 s-3.359375,-7.5 -7.5,-7.5 zm0,0 " id="svg_10" class="" fill-opacity="1" fill="#fffff0"/><path d="m91,268.5 c-22.605469,0 -41,18.394531 -41,41 s18.394531,41 41,41 s41,-18.394531 41,-41 s-18.394531,-41 -41,-41 zm0,67 c-14.335938,0 -26,-11.664062 -26,-26 s11.664062,-26 26,-26 s26,11.664062 26,26 s-11.664062,26 -26,26 zm0,0 " id="svg_11" class="" fill-opacity="1" fill="#fffff0"/><path d="m65,365.5 c-4.140625,0 -7.5,3.3554690000000003 -7.5,7.5 s3.359375,7.5 7.5,7.5 h52 c4.140625,0 7.5,-3.3554690000000003 7.5,-7.5 s-3.359375,-7.5 -7.5,-7.5 zm0,0 " id="svg_12" class="" fill-opacity="1" fill="#fffff0"/><path d="m204,268.5 c-22.605469,0 -41,18.394531 -41,41 s18.394531,41 41,41 s41,-18.394531 41,-41 s-18.394531,-41 -41,-41 zm0,67 c-14.335938,0 -26,-11.664062 -26,-26 s11.664062,-26 26,-26 s26,11.664062 26,26 s-11.664062,26 -26,26 zm0,0 " id="svg_13" class="" fill-opacity="1" fill="#fffff0"/><path d="m237.5,373 c0,-4.144531 -3.359375,-7.5 -7.5,-7.5 h-52 c-4.140625,0 -7.5,3.3554690000000003 -7.5,7.5 s3.359375,7.5 7.5,7.5 h52 c4.140625,0 7.5,-3.3554690000000003 7.5,-7.5 zm0,0 " id="svg_14" class="" fill-opacity="1" fill="#fffff0"/><path d="m317,268.5 c-22.605469,0 -41,18.394531 -41,41 s18.394531,41 41,41 s41,-18.394531 41,-41 s-18.394531,-41 -41,-41 zm0,67 c-14.335938,0 -26,-11.664062 -26,-26 s11.664062,-26 26,-26 s26,11.664062 26,26 s-11.664062,26 -26,26 zm0,0 " id="svg_15" class="" fill-opacity="1" fill="#fffff0"/><path d="m291,365.5 c-4.140625,0 -7.5,3.3554690000000003 -7.5,7.5 s3.359375,7.5 7.5,7.5 h52 c4.140625,0 7.5,-3.3554690000000003 7.5,-7.5 s-3.359375,-7.5 -7.5,-7.5 zm0,0 " id="svg_16" class="" fill-opacity="1" fill="#fffff0"/><path d="m49,469.5 c0,6.894531 5.605469,12.5 12.5,12.5 h117 c6.894531,0 12.5,-5.605469 12.5,-12.5 v-57 c0,-6.894531 -5.605469,-12.5 -12.5,-12.5 h-117 c-6.894531,0 -12.5,5.605469 -12.5,12.5 zm53.851562,-2.5 l11.839844,-11.839844 c2.925782,-2.925781 7.683594,-2.921875 10.609375,0 l11.839844,11.839844 zm-38.851562,-52 h112 v52 h-17.648438 l-22.445312,-22.445312 c-8.773438,-8.773438 -23.046875,-8.773438 -31.820312,0 l-22.449219,22.445312 h-17.636719 zm0,0 " id="svg_17" class="" fill-opacity="1" fill="#fffff0"/><path d="m217,412.5 v57 c0,6.894531 5.605469,12.5 12.5,12.5 h117 c6.894531,0 12.5,-5.605469 12.5,-12.5 v-57 c0,-6.894531 -5.605469,-12.5 -12.5,-12.5 h-117 c-6.894531,0 -12.5,5.605469 -12.5,12.5 zm53.851562,54.5 l11.839844,-11.839844 c2.925782,-2.925781 7.683594,-2.921875 10.609375,0 l11.839844,11.839844 zm-38.851562,-52 h112 v52 h-17.648438 l-22.445312,-22.445312 c-8.773438,-8.773438 -23.046875,-8.773438 -31.820312,0 l-22.449219,22.445312 h-17.636719 zm0,0 " id="svg_18" class="" fill-opacity="1" fill="#fffff0"/></g></svg>