<svg xmlns="http://www.w3.org/2000/svg" height="512" width="512"><rect id="backgroundrect" width="100%" height="100%" x="0" y="0" fill="none" stroke="none"/><g class="currentLayer" style=""><title>Layer 1</title><path d="m457.003906 0h-402.007812c-30.324219 0-54.996094 24.671875-54.996094 54.996094v402.007812c0 30.324219 24.671875 54.996094 54.996094 54.996094h402.007812c30.324219 0 54.996094-24.671875 54.996094-54.996094v-402.007812c0-30.324219-24.671875-54.996094-54.996094-54.996094zm-402.007812 30h402.007812c13.78125 0 24.996094 11.214844 24.996094 24.996094v66.003906h-452v-66.003906c0-13.78125 11.214844-24.996094 24.996094-24.996094zm402.007812 452h-402.007812c-13.78125 0-24.996094-11.214844-24.996094-24.996094v-306.003906h452v306.003906c0 13.78125-11.214844 24.996094-24.996094 24.996094zm0 0" id="svg_1" class="" fill-opacity="1" fill="#fffff0"/><path d="m451 76c0 8.285156-6.714844 15-15 15s-15-6.714844-15-15 6.714844-15 15-15 15 6.714844 15 15zm0 0" id="svg_2" class="" fill-opacity="1" fill="#fffff0"/><path d="m391 76c0 8.285156-6.714844 15-15 15s-15-6.714844-15-15 6.714844-15 15-15 15 6.714844 15 15zm0 0" id="svg_3" class="" fill-opacity="1" fill="#fffff0"/><path d="m331 76c0 8.285156-6.714844 15-15 15s-15-6.714844-15-15 6.714844-15 15-15 15 6.714844 15 15zm0 0" id="svg_4" class="" fill-opacity="1" fill="#fffff0"/><path d="m166 241h180c8.285156 0 15-6.714844 15-15s-6.714844-15-15-15h-180c-8.285156 0-15 6.714844-15 15s6.714844 15 15 15zm0 0" id="svg_5" class="" fill-opacity="1" fill="#fffff0"/><path d="m406 271h-300c-8.285156 0-15 6.714844-15 15s6.714844 15 15 15h300c8.285156 0 15-6.714844 15-15s-6.714844-15-15-15zm0 0" id="svg_6" class="" fill-opacity="1" fill="#fffff0"/><path d="m301 331h-90c-24.8125 0-45 20.1875-45 45s20.1875 45 45 45h90c24.8125 0 45-20.1875 45-45s-20.1875-45-45-45zm0 60h-90c-8.269531 0-15-6.730469-15-15s6.730469-15 15-15h90c8.269531 0 15 6.730469 15 15s-6.730469 15-15 15zm0 0" id="svg_7" class="" fill-opacity="1" fill="#fffff0"/></g></svg>